<svg width="126" height="40" viewBox="0 0 126 40" fill="none" xmlns="http://www.w3.org/2000/svg">
<g clip-path="url(#clip0_520_2014)">
<path d="M120.859 39.6875H5.09801C2.6927 39.6875 0.734863 37.5928 0.734863 35.0285V4.96466C0.734863 2.39937 2.6927 0.3125 5.09801 0.3125H120.859C123.264 0.3125 125.291 2.39937 125.291 4.96466V35.0285C125.291 37.5928 123.264 39.6875 120.859 39.6875Z" fill="#A6A6A6"/>
<path d="M124.398 35.0293C124.398 37.1123 122.817 38.7995 120.86 38.7995H5.09792C3.14284 38.7995 1.55591 37.1123 1.55591 35.0293V4.96355C1.55591 2.8816 3.14284 1.18848 5.09792 1.18848H120.859C122.817 1.18848 124.397 2.8816 124.397 4.96355L124.398 35.0293Z" fill="black"/>
<path d="M28.5323 19.7875C28.5055 16.6149 30.9671 15.0713 31.0797 14.9995C29.6855 12.8309 27.5247 12.5346 26.7654 12.511C24.9505 12.3072 23.1902 13.6696 22.2657 13.6696C21.3228 13.6696 19.8992 12.5307 18.3648 12.5642C16.3903 12.5967 14.5432 13.8163 13.5302 15.7103C11.4395 19.5719 12.9987 25.2469 15.0018 28.3683C16.0038 29.8971 17.1746 31.604 18.7071 31.5439C20.2064 31.4779 20.7664 30.5241 22.5757 30.5241C24.3684 30.5241 24.8943 31.5439 26.4572 31.5055C28.0663 31.478 29.0794 29.9699 30.0463 28.4274C31.2042 26.6752 31.6692 24.9496 31.6877 24.861C31.6498 24.8472 28.5627 23.5902 28.5323 19.7875Z" fill="white"/>
<path d="M25.5796 10.4577C26.386 9.38184 26.9377 7.91804 26.7846 6.43262C25.6174 6.48774 24.1578 7.29395 23.3173 8.34624C22.5737 9.27351 21.9094 10.7934 22.081 12.2227C23.392 12.3271 24.7381 11.5169 25.5796 10.4577Z" fill="white"/>
<path d="M50.2299 31.3242H48.1346L46.9868 27.4763H42.9973L41.904 31.3242H39.864L43.8167 18.2241H46.2579L50.2299 31.3242ZM46.6408 25.8619L45.6029 22.4412C45.4931 22.0917 45.2874 21.2688 44.9837 19.9733H44.9469C44.826 20.5305 44.6313 21.3535 44.3638 22.4412L43.3442 25.8619H46.6408Z" fill="white"/>
<path d="M60.3945 26.4849C60.3945 28.0914 59.9876 29.3612 59.1739 30.2935C58.445 31.1233 57.5399 31.5377 56.4594 31.5377C55.2932 31.5377 54.4555 31.0908 53.9453 30.197H53.9084V35.173H51.9413V24.9876C51.9413 23.9777 51.9164 22.9412 51.8684 21.8781H53.5984L53.7082 23.3753H53.7451C54.4011 22.2471 55.3966 21.6841 56.7325 21.6841C57.777 21.6841 58.6489 22.1241 59.3464 23.0052C60.0457 23.8872 60.3945 25.0467 60.3945 26.4849ZM58.3906 26.5617C58.3906 25.6423 58.1968 24.8843 57.8075 24.2878C57.3821 23.6657 56.811 23.3546 56.095 23.3546C55.6097 23.3546 55.1687 23.5279 54.7747 23.8694C54.3798 24.214 54.1215 24.6638 54.0006 25.221C53.9397 25.4809 53.9093 25.6935 53.9093 25.8608V27.4358C53.9093 28.1229 54.1067 28.7027 54.5016 29.1762C54.8965 29.6496 55.4095 29.8859 56.0406 29.8859C56.7814 29.8859 57.3582 29.5808 57.7705 28.9724C58.1839 28.3631 58.3906 27.5599 58.3906 26.5617Z" fill="white"/>
<path d="M70.5777 26.4849C70.5777 28.0914 70.1708 29.3612 69.3561 30.2935C68.6281 31.1233 67.723 31.5377 66.6427 31.5377C65.4765 31.5377 64.6386 31.0908 64.1294 30.197H64.0925V35.173H62.1254V24.9876C62.1254 23.9777 62.1005 22.9412 62.0525 21.8781H63.7825L63.8923 23.3753H63.9292C64.5842 22.2471 65.5798 21.6841 66.9167 21.6841C67.9601 21.6841 68.8321 22.1241 69.5315 23.0052C70.2281 23.8872 70.5777 25.0467 70.5777 26.4849ZM68.5737 26.5617C68.5737 25.6423 68.379 24.8843 67.9897 24.2878C67.5644 23.6657 66.9951 23.3546 66.2782 23.3546C65.792 23.3546 65.3519 23.5279 64.957 23.8694C64.5621 24.214 64.3047 24.6638 64.1838 25.221C64.1239 25.4809 64.0925 25.6935 64.0925 25.8608V27.4358C64.0925 28.1229 64.29 28.7027 64.6829 29.1762C65.0779 29.6487 65.5908 29.8859 66.2238 29.8859C66.9647 29.8859 67.5413 29.5808 67.9538 28.9724C68.367 28.3631 68.5737 27.5599 68.5737 26.5617Z" fill="white"/>
<path d="M81.9629 27.6506C81.9629 28.7649 81.6003 29.6715 80.8724 30.3714C80.0725 31.1362 78.9589 31.5182 77.5278 31.5182C76.2067 31.5182 75.1475 31.2465 74.3457 30.7021L74.8015 28.9529C75.665 29.51 76.6126 29.7896 77.645 29.7896C78.3859 29.7896 78.9626 29.6105 79.3768 29.2541C79.7893 28.8978 79.995 28.4194 79.995 27.8229C79.995 27.2913 79.8252 26.8434 79.4848 26.4802C79.1461 26.1169 78.5805 25.7793 77.7908 25.4672C75.6411 24.6118 74.5671 23.3587 74.5671 21.7108C74.5671 20.634 74.9435 19.751 75.6973 19.0639C76.4483 18.3758 77.4504 18.0322 78.7033 18.0322C79.8206 18.0322 80.7488 18.24 81.4896 18.6544L80.9979 20.3652C80.3059 19.9636 79.5235 19.7628 78.6479 19.7628C77.956 19.7628 77.4153 19.9449 77.0278 20.3071C76.7002 20.631 76.536 21.0257 76.536 21.4933C76.536 22.0111 76.7233 22.4393 77.0998 22.776C77.4273 23.087 78.0224 23.4236 78.886 23.7869C79.9424 24.2407 80.7183 24.7713 81.2174 25.3796C81.7148 25.986 81.9629 26.745 81.9629 27.6506Z" fill="white"/>
<path d="M88.467 23.4536H86.2984V28.0398C86.2984 29.2063 86.6803 29.789 87.4461 29.789C87.7976 29.789 88.089 29.7565 88.32 29.6915L88.3742 31.2853C87.9866 31.4398 87.4766 31.5176 86.8446 31.5176C86.0677 31.5176 85.4607 31.2646 85.0224 30.7596C84.586 30.2536 84.3664 29.4051 84.3664 28.213V23.4516H83.0747V21.8766H84.3664V20.147L86.2984 19.5249V21.8766H88.467V23.4536Z" fill="white"/>
<path d="M98.2493 26.5233C98.2493 27.9753 97.8599 29.1674 97.0829 30.0995C96.2683 31.0593 95.1868 31.5377 93.8393 31.5377C92.5399 31.5377 91.5056 31.078 90.7348 30.1586C89.963 29.2392 89.5771 28.0786 89.5771 26.6798C89.5771 25.216 89.9744 24.0171 90.7706 23.0849C91.5651 22.1517 92.637 21.6851 93.9845 21.6851C95.2839 21.6851 96.3295 22.1448 97.1179 23.0652C97.873 23.958 98.2493 25.1107 98.2493 26.5233ZM96.2088 26.5912C96.2088 25.72 96.0338 24.9729 95.6803 24.3498C95.2681 23.5958 94.6784 23.2197 93.9145 23.2197C93.1244 23.2197 92.5233 23.5968 92.1111 24.3498C91.7576 24.9739 91.5835 25.7328 91.5835 26.6306C91.5835 27.5018 91.7576 28.2489 92.1111 28.871C92.5364 29.6251 93.1305 30.0011 93.897 30.0011C94.6478 30.0011 95.2375 29.6172 95.6628 28.8513C96.0259 28.2164 96.2088 27.4614 96.2088 26.5912Z" fill="white"/>
<path d="M104.643 23.7237C104.449 23.6854 104.241 23.6657 104.024 23.6657C103.331 23.6657 102.796 23.9442 102.42 24.5024C102.092 24.9946 101.928 25.6167 101.928 26.3678V31.3241H99.9619L99.9802 24.8528C99.9802 23.7641 99.9557 22.7728 99.9067 21.879H101.62L101.692 23.6863H101.747C101.954 23.0652 102.281 22.5651 102.73 22.1901C103.168 21.8524 103.641 21.6841 104.151 21.6841C104.333 21.6841 104.498 21.6979 104.643 21.7225V23.7237Z" fill="white"/>
<path d="M113.44 26.1543C113.44 26.5303 113.418 26.8473 113.369 27.1061H107.468C107.49 28.0393 107.776 28.753 108.323 29.2452C108.821 29.6852 109.463 29.9057 110.254 29.9057C111.128 29.9057 111.925 29.7571 112.641 29.4588L112.949 30.9157C112.112 31.3055 111.122 31.4994 109.981 31.4994C108.609 31.4994 107.531 31.0683 106.747 30.2069C105.964 29.3456 105.572 28.1889 105.572 26.738C105.572 25.3136 105.936 24.1274 106.666 23.1815C107.43 22.1715 108.462 21.6665 109.762 21.6665C111.038 21.6665 112.004 22.1715 112.66 23.1815C113.18 23.9837 113.44 24.9759 113.44 26.1543ZM111.564 25.6099C111.577 24.9877 111.45 24.4503 111.183 23.9965C110.842 23.4127 110.319 23.1214 109.615 23.1214C108.972 23.1214 108.449 23.4059 108.049 23.9769C107.722 24.4306 107.527 24.975 107.468 25.6089H111.564V25.6099Z" fill="white"/>
<path d="M45.99 10.1648C45.99 11.3234 45.6643 12.1956 45.0139 12.7813C44.4113 13.3217 43.5552 13.5925 42.4462 13.5925C41.8962 13.5925 41.4258 13.5668 41.0317 13.5156V7.18514C41.5456 7.09655 42.0992 7.05127 42.6971 7.05127C43.7535 7.05127 44.5498 7.29637 45.0868 7.78659C45.6883 8.3408 45.99 9.13321 45.99 10.1648ZM44.9705 10.1934C44.9705 9.44235 44.7841 8.86646 44.4113 8.46483C44.0386 8.06419 43.4943 7.86337 42.7774 7.86337C42.473 7.86337 42.2137 7.88503 41.9987 7.93031V12.7429C42.1177 12.7626 42.3354 12.7715 42.6519 12.7715C43.3919 12.7715 43.963 12.5519 44.3652 12.1129C44.7676 11.6739 44.9705 11.0341 44.9705 10.1934Z" fill="white"/>
<path d="M51.396 11.177C51.396 11.8908 51.2051 12.4754 50.823 12.9342C50.4226 13.4057 49.8921 13.6409 49.2297 13.6409C48.5912 13.6409 48.0828 13.4155 47.7037 12.9627C47.3253 12.5109 47.1362 11.9409 47.1362 11.2539C47.1362 10.5352 47.3309 9.94565 47.722 9.48785C48.1133 9.03015 48.6392 8.80078 49.3016 8.80078C49.9401 8.80078 50.4531 9.02621 50.8415 9.47805C51.2106 9.91704 51.396 10.484 51.396 11.177ZM50.3932 11.2105C50.3932 10.7823 50.3064 10.4152 50.1339 10.109C49.9309 9.73889 49.6421 9.55382 49.2666 9.55382C48.8782 9.55382 48.5829 9.73889 48.38 10.109C48.2064 10.4152 48.1207 10.7883 48.1207 11.2293C48.1207 11.6574 48.2074 12.0246 48.38 12.3307C48.5893 12.7008 48.8809 12.8859 49.2573 12.8859C49.6264 12.8859 49.9161 12.698 50.1246 12.3209C50.3036 12.0089 50.3932 11.6388 50.3932 11.2105Z" fill="white"/>
<path d="M58.6436 8.89502L57.2827 13.5354H56.3971L55.8333 11.5204C55.6903 11.0173 55.574 10.5173 55.4836 10.0211H55.4661C55.3821 10.5311 55.2659 11.0301 55.1164 11.5204L54.5176 13.5354H53.6217L52.342 8.89502H53.3357L53.8274 11.101C53.9465 11.6227 54.0443 12.1198 54.1228 12.5904H54.1403C54.2122 12.2025 54.3313 11.7084 54.4992 11.1109L55.1164 8.896H55.9043L56.4958 11.0636C56.6387 11.5922 56.755 12.1011 56.8445 12.5914H56.8712C56.9368 12.114 57.0355 11.605 57.1665 11.0636L57.6942 8.896H58.6436V8.89502Z" fill="white"/>
<path d="M63.6569 13.5356H62.6899V10.8778C62.6899 10.0588 62.3983 9.64932 61.8134 9.64932C61.5264 9.64932 61.2949 9.76159 61.115 9.98699C60.9369 10.2124 60.8464 10.4782 60.8464 10.7824V13.5347H59.8796V10.2212C59.8796 9.81374 59.8676 9.37177 59.8445 8.89333H60.6942L60.7394 9.61879H60.7662C60.8787 9.39339 61.0466 9.20736 61.2671 9.05871C61.5292 8.88546 61.8226 8.79785 62.1437 8.79785C62.5496 8.79785 62.8873 8.93763 63.1558 9.21821C63.4898 9.56174 63.6569 10.0746 63.6569 10.7558V13.5356Z" fill="white"/>
<path d="M66.3234 13.5357H65.3574V6.76611H66.3234V13.5357Z" fill="white"/>
<path d="M72.016 11.177C72.016 11.8908 71.8249 12.4754 71.443 12.9342C71.0426 13.4057 70.5111 13.6409 69.8496 13.6409C69.2103 13.6409 68.7018 13.4155 68.3235 12.9627C67.9453 12.5109 67.7561 11.9409 67.7561 11.2539C67.7561 10.5352 67.9508 9.94565 68.342 9.48785C68.7332 9.03015 69.2591 8.80078 69.9207 8.80078C70.56 8.80078 71.0721 9.02621 71.4615 9.47805C71.8305 9.91704 72.016 10.484 72.016 11.177ZM71.0122 11.2105C71.0122 10.7823 70.9254 10.4152 70.7529 10.109C70.5509 9.73889 70.2611 9.55382 69.8866 9.55382C69.4972 9.55382 69.202 9.73889 68.9998 10.109C68.8264 10.4152 68.7406 10.7883 68.7406 11.2293C68.7406 11.6574 68.8274 12.0246 68.9998 12.3307C69.2093 12.7008 69.5009 12.8859 69.8773 12.8859C70.2464 12.8859 70.5351 12.698 70.7436 12.3209C70.9235 12.0089 71.0122 11.6388 71.0122 11.2105Z" fill="white"/>
<path d="M76.6956 13.5356H75.8274L75.7554 13.0011H75.7287C75.4316 13.4274 75.0081 13.6409 74.4582 13.6409C74.0477 13.6409 73.7155 13.5002 73.4655 13.2206C73.2385 12.9667 73.125 12.6507 73.125 12.2756C73.125 11.7086 73.3465 11.2765 73.7921 10.9773C74.2368 10.678 74.8624 10.5313 75.6678 10.5382V10.4516C75.6678 9.8403 75.367 9.5351 74.7646 9.5351C74.3356 9.5351 73.9572 9.65034 73.6307 9.87871L73.4341 9.20146C73.8382 8.93466 74.3374 8.80078 74.926 8.80078C76.0627 8.80078 76.6329 9.4406 76.6329 10.7203V12.4292C76.6329 12.8928 76.6541 13.262 76.6956 13.5356ZM75.6918 11.9409V11.2253C74.6253 11.2056 74.092 11.5177 74.092 12.1604C74.092 12.4026 74.1529 12.5838 74.2774 12.7048C74.402 12.8259 74.5606 12.8859 74.7498 12.8859C74.962 12.8859 75.1603 12.8141 75.3412 12.6714C75.5229 12.5276 75.6346 12.3455 75.6761 12.122C75.6863 12.0719 75.6918 12.0108 75.6918 11.9409Z" fill="white"/>
<path d="M82.19 13.5357H81.3318L81.2867 12.7905H81.2599C80.9859 13.3575 80.5191 13.641 79.8631 13.641C79.3389 13.641 78.9026 13.4215 78.5566 12.9824C78.2106 12.5434 78.0381 11.9734 78.0381 11.2735C78.0381 10.5225 78.2253 9.91413 78.6018 9.4495C78.9662 9.01639 79.4128 8.79983 79.9443 8.79983C80.5282 8.79983 80.937 9.0095 81.1695 9.42981H81.1879V6.76611H82.1558V12.2855C82.1558 12.7373 82.1669 13.1537 82.19 13.5357ZM81.1879 11.5787V10.805C81.1879 10.6711 81.1787 10.5629 81.1612 10.4802C81.1067 10.2321 80.9895 10.0234 80.8115 9.85506C80.6316 9.68671 80.4148 9.6021 80.1648 9.6021C79.804 9.6021 79.5216 9.7547 79.3141 10.0608C79.1083 10.3669 79.0041 10.7577 79.0041 11.2352C79.0041 11.6939 79.1028 12.066 79.3011 12.3524C79.5106 12.6576 79.7929 12.8102 80.1463 12.8102C80.4637 12.8102 80.7174 12.6832 80.9103 12.4283C81.0966 12.193 81.1879 11.9095 81.1879 11.5787Z" fill="white"/>
<path d="M90.4593 11.177C90.4593 11.8908 90.2685 12.4754 89.8862 12.9342C89.4863 13.4057 88.9569 13.6409 88.2928 13.6409C87.6558 13.6409 87.1472 13.4155 86.7671 12.9627C86.3889 12.5109 86.1997 11.9409 86.1997 11.2539C86.1997 10.5352 86.3944 9.94565 86.7856 9.48785C87.1768 9.03015 87.703 8.80078 88.3663 8.80078C89.0033 8.80078 89.5178 9.02621 89.9054 9.47805C90.2738 9.91704 90.4593 10.484 90.4593 11.177ZM89.4574 11.2105C89.4574 10.7823 89.3708 10.4152 89.1984 10.109C88.9945 9.73889 88.7067 9.55382 88.3304 9.55382C87.9428 9.55382 87.647 9.73889 87.4434 10.109C87.27 10.4152 87.1842 10.7883 87.1842 11.2293C87.1842 11.6574 87.2709 12.0246 87.4434 12.3307C87.6532 12.7008 87.9445 12.8859 88.3208 12.8859C88.69 12.8859 88.9805 12.698 89.1888 12.3209C89.3673 12.0089 89.4574 11.6388 89.4574 11.2105Z" fill="white"/>
<path d="M95.6584 13.5356H94.6924V10.8778C94.6924 10.0588 94.401 9.64932 93.8148 9.64932C93.5278 9.64932 93.2968 9.76159 93.1174 9.98699C92.9389 10.2124 92.8488 10.4782 92.8488 10.7824V13.5347H91.8811V10.2212C91.8811 9.81374 91.8705 9.37177 91.8469 8.89333H92.6957L92.7412 9.61879H92.7683C92.8812 9.39339 93.0492 9.20736 93.2688 9.05871C93.5322 8.88546 93.8244 8.79785 94.1464 8.79785C94.5515 8.79785 94.8893 8.93763 95.1579 9.21821C95.4922 9.56174 95.6584 10.0746 95.6584 10.7558V13.5356Z" fill="white"/>
<path d="M102.166 9.66812H101.101V11.9224C101.101 12.4952 101.29 12.7817 101.664 12.7817C101.838 12.7817 101.982 12.766 102.096 12.7335L102.12 13.516C101.93 13.5928 101.678 13.6313 101.37 13.6313C100.987 13.6313 100.691 13.5072 100.475 13.2591C100.259 13.0111 100.152 12.5937 100.152 12.008V9.66812H99.5164V8.8954H100.152V8.0449L101.1 7.73975V8.89441H102.165L102.166 9.66812Z" fill="white"/>
<path d="M107.285 13.5357H106.316V10.8975C106.316 10.0658 106.025 9.64935 105.441 9.64935C104.992 9.64935 104.686 9.8905 104.518 10.3729C104.49 10.4742 104.473 10.5983 104.473 10.744V13.5347H103.507V6.76611H104.473V9.56273H104.492C104.796 9.0538 105.233 8.79983 105.798 8.79983C106.199 8.79983 106.53 8.93961 106.793 9.22016C107.12 9.56964 107.285 10.0894 107.285 10.7764V13.5357Z" fill="white"/>
<path d="M112.564 10.996C112.564 11.1811 112.551 11.3366 112.529 11.4635H109.629C109.642 11.9223 109.78 12.2718 110.049 12.5139C110.294 12.7305 110.611 12.8388 110.998 12.8388C111.427 12.8388 111.818 12.7659 112.171 12.6192L112.322 13.3359C111.91 13.5268 111.424 13.6223 110.863 13.6223C110.189 13.6223 109.659 13.4107 109.274 12.9874C108.889 12.5641 108.698 11.9962 108.698 11.2835C108.698 10.5836 108.876 10.0008 109.235 9.53618C109.61 9.04005 110.116 8.79199 110.755 8.79199C111.381 8.79199 111.856 9.04005 112.177 9.53618C112.437 9.92993 112.564 10.4172 112.564 10.996ZM111.642 10.7292C111.649 10.4231 111.585 10.1593 111.455 9.93684C111.287 9.65037 111.031 9.5066 110.685 9.5066C110.37 9.5066 110.113 9.64643 109.916 9.92695C109.755 10.1504 109.66 10.4172 109.629 10.7292H111.642Z" fill="white"/>
</g>
<defs>
<clipPath id="clip0_520_2014">
<rect width="126" height="39.375" fill="white" transform="translate(0 0.3125)"/>
</clipPath>
</defs>
</svg>
