<svg width="126" height="40" viewBox="0 0 126 40" fill="none" xmlns="http://www.w3.org/2000/svg">
<g clip-path="url(#clip0_520_2041)">
<path d="M120.782 39.8252H4.64544C2.04399 39.8252 0 37.6444 0 34.8689V5.1311C0 2.35557 2.04399 0.174805 4.64544 0.174805H120.782C123.383 0.174805 125.427 2.35557 125.427 5.1311V34.8689C125.427 37.6444 123.383 39.8252 120.782 39.8252Z" fill="black"/>
<path d="M120.782 0.967812C122.919 0.967812 124.684 2.8512 124.684 5.1311V34.8689C124.684 37.1488 122.919 39.0321 120.782 39.0321H4.64544C2.50854 39.0321 0.743271 37.1488 0.743271 34.8689V5.1311C0.743271 2.8512 2.50854 0.967812 4.64544 0.967812H120.782ZM120.782 0.174805H4.64544C2.04399 0.174805 0 2.4547 0 5.1311V34.8689C0 37.6444 2.04399 39.8252 4.64544 39.8252H120.782C123.383 39.8252 125.427 37.6444 125.427 34.8689V5.1311C125.427 2.4547 123.383 0.174805 120.782 0.174805Z" fill="#A6A6A6"/>
<path d="M44.0388 10.2858C44.0388 11.0789 43.853 11.7727 43.3885 12.2684C42.831 12.8631 42.1806 13.1605 41.3445 13.1605C40.5083 13.1605 39.8579 12.8631 39.3005 12.2684C38.7431 11.6736 38.4644 10.9797 38.4644 10.0876C38.4644 9.19546 38.7431 8.50154 39.3005 7.90678C39.8579 7.31203 40.5083 7.01465 41.3445 7.01465C41.7161 7.01465 42.0878 7.11377 42.4594 7.31203C42.831 7.51028 43.1098 7.70853 43.2956 8.00591L42.831 8.50154C42.4594 8.00591 41.9948 7.80766 41.3445 7.80766C40.7871 7.80766 40.2296 8.00591 39.8579 8.50154C39.3934 8.89804 39.2076 9.49284 39.2076 10.1867C39.2076 10.8806 39.3934 11.4754 39.8579 11.8719C40.3225 12.2684 40.7871 12.5657 41.3445 12.5657C41.9948 12.5657 42.4594 12.3675 42.924 11.8719C43.2027 11.5745 43.3885 11.178 43.3885 10.6823H41.3445V9.88934H44.0388C44.0388 9.98847 44.0388 10.1867 44.0388 10.2858Z" fill="white" stroke="white" stroke-width="0.176224" stroke-miterlimit="10"/>
<path d="M48.3131 7.80765H45.8045V9.69104H48.1272V10.3849H45.8045V12.2683H48.3131V13.0613H45.0613V7.11377H48.3131V7.80765Z" fill="white" stroke="white" stroke-width="0.176224" stroke-miterlimit="10"/>
<path d="M51.3786 13.0613H50.6353V7.80765H49.0559V7.11377H52.958V7.80765H51.3786V13.0613Z" fill="white" stroke="white" stroke-width="0.176224" stroke-miterlimit="10"/>
<path d="M55.6526 13.0613V7.11377H56.3958V13.0613H55.6526Z" fill="white" stroke="white" stroke-width="0.176224" stroke-miterlimit="10"/>
<path d="M59.5549 13.0613H58.8116V7.80765H57.2322V7.11377H61.0414V7.80765H59.4619V13.0613H59.5549Z" fill="white" stroke="white" stroke-width="0.176224" stroke-miterlimit="10"/>
<path d="M68.381 12.2684C67.8235 12.8631 67.1732 13.1605 66.337 13.1605C65.5008 13.1605 64.8505 12.8631 64.293 12.2684C63.7355 11.6736 63.4568 10.9797 63.4568 10.0876C63.4568 9.19546 63.7355 8.50154 64.293 7.90678C64.8505 7.31203 65.5008 7.01465 66.337 7.01465C67.1732 7.01465 67.8235 7.31203 68.381 7.90678C68.9384 8.50154 69.2172 9.19546 69.2172 10.0876C69.2172 10.9797 68.9384 11.6736 68.381 12.2684ZM64.8504 11.7727C65.2221 12.1692 65.7795 12.4666 66.337 12.4666C66.8944 12.4666 67.4519 12.2684 67.8235 11.7727C68.1952 11.3762 68.4739 10.7815 68.4739 10.0876C68.4739 9.39371 68.288 8.79891 67.8235 8.40241C67.4519 8.00591 66.8944 7.70853 66.337 7.70853C65.7795 7.70853 65.2221 7.90678 64.8504 8.40241C64.4788 8.79891 64.2001 9.39371 64.2001 10.0876C64.2001 10.7815 64.3859 11.3762 64.8504 11.7727Z" fill="white" stroke="white" stroke-width="0.176224" stroke-miterlimit="10"/>
<path d="M70.2395 13.0613V7.11377H71.0757L73.7701 11.7727V10.5832V7.11377H74.5133V13.0613H73.7701L70.8899 8.20415V9.39366V13.0613H70.2395Z" fill="white" stroke="white" stroke-width="0.176224" stroke-miterlimit="10"/>
<path d="M63.2712 21.7839C61.0414 21.7839 59.2761 23.5682 59.2761 26.0463C59.2761 28.4254 61.0414 30.3087 63.2712 30.3087C65.501 30.3087 67.2662 28.5245 67.2662 26.0463C67.2662 23.4691 65.501 21.7839 63.2712 21.7839ZM63.2712 28.5245C62.0634 28.5245 61.0414 27.4341 61.0414 25.9472C61.0414 24.4603 62.0634 23.3699 63.2712 23.3699C64.479 23.3699 65.501 24.3612 65.501 25.9472C65.501 27.4341 64.479 28.5245 63.2712 28.5245ZM54.6306 21.7839C52.4009 21.7839 50.6356 23.5682 50.6356 26.0463C50.6356 28.4254 52.4009 30.3087 54.6306 30.3087C56.8605 30.3087 58.6257 28.5245 58.6257 26.0463C58.6257 23.4691 56.8605 21.7839 54.6306 21.7839ZM54.6306 28.5245C53.4228 28.5245 52.4009 27.4341 52.4009 25.9472C52.4009 24.4603 53.4228 23.3699 54.6306 23.3699C55.8385 23.3699 56.8605 24.3612 56.8605 25.9472C56.8605 27.4341 55.8385 28.5245 54.6306 28.5245ZM44.3178 23.0726V24.8568H48.3128C48.22 25.8481 47.8483 26.6411 47.3838 27.1367C46.8263 27.7315 45.8973 28.4254 44.3178 28.4254C41.8092 28.4254 39.951 26.3437 39.951 23.6673C39.951 20.9909 41.9022 18.9093 44.3178 18.9093C45.6185 18.9093 46.6405 19.504 47.3838 20.1979L48.5915 18.9093C47.5696 17.918 46.2688 17.125 44.4107 17.125C41.066 17.125 38.1858 20.0988 38.1858 23.6673C38.1858 27.2358 41.066 30.2096 44.4107 30.2096C46.2688 30.2096 47.5696 29.6149 48.6845 28.3262C49.7994 27.1367 50.171 25.4516 50.171 24.1629C50.171 23.7664 50.171 23.3699 50.0782 23.0726H44.3178ZM86.4984 24.4603C86.1268 23.4691 85.1977 21.7839 83.1537 21.7839C81.1097 21.7839 79.4373 23.4691 79.4373 26.0463C79.4373 28.4254 81.1097 30.3087 83.3395 30.3087C85.1048 30.3087 86.2197 29.1192 86.5913 28.4254L85.2906 27.4341C84.8261 28.128 84.2686 28.6236 83.3395 28.6236C82.4105 28.6236 81.853 28.2271 81.3885 27.335L86.6842 24.9559L86.4984 24.4603ZM81.1097 25.8481C81.1097 24.2621 82.3175 23.3699 83.1537 23.3699C83.8041 23.3699 84.4544 23.7664 84.6402 24.2621L81.1097 25.8481ZM76.743 29.9122H78.5083V17.5215H76.743V29.9122ZM73.9557 22.676C73.4912 22.1804 72.7479 21.6848 71.8188 21.6848C69.8677 21.6848 68.0096 23.5682 68.0096 25.9472C68.0096 28.3262 69.7748 30.1105 71.8188 30.1105C72.7479 30.1105 73.4912 29.6149 73.8628 29.1192H73.9557V29.714C73.9557 31.3 73.1195 32.1921 71.8188 32.1921C70.7968 32.1921 70.0536 31.3991 69.8677 30.7052L68.3812 31.3991C68.8457 32.4895 69.9606 33.8773 71.9118 33.8773C73.9557 33.8773 75.6281 32.5886 75.6281 29.5157V21.9822H73.9557V22.676ZM71.9118 28.5245C70.7039 28.5245 69.6819 27.4341 69.6819 25.9472C69.6819 24.4603 70.7039 23.3699 71.9118 23.3699C73.1195 23.3699 74.0487 24.4603 74.0487 25.9472C74.0487 27.4341 73.1195 28.5245 71.9118 28.5245ZM94.5819 17.5215H90.401V29.9122H92.1659V25.2533H94.5819C96.5327 25.2533 98.391 23.7664 98.391 21.3874C98.391 19.0084 96.5327 17.5215 94.5819 17.5215ZM94.6744 23.4691H92.1659V19.2066H94.6744C95.9749 19.2066 96.7186 20.3962 96.7186 21.2883C96.6252 22.3787 95.8824 23.4691 94.6744 23.4691ZM105.359 21.6848C104.058 21.6848 102.758 22.2795 102.293 23.5682L103.872 24.2621C104.244 23.5682 104.801 23.3699 105.452 23.3699C106.381 23.3699 107.217 23.9647 107.31 24.9559V25.0551C107.031 24.8568 106.288 24.5594 105.545 24.5594C103.872 24.5594 102.2 25.5507 102.2 27.335C102.2 29.0201 103.594 30.1105 105.08 30.1105C106.288 30.1105 106.845 29.5157 107.31 28.921H107.403V29.9122H109.075V25.1542C108.89 22.9734 107.31 21.6848 105.359 21.6848ZM105.173 28.5245C104.616 28.5245 103.78 28.2271 103.78 27.4341C103.78 26.4428 104.801 26.1455 105.637 26.1455C106.381 26.1455 106.753 26.3437 107.217 26.542C107.031 27.7315 106.103 28.5245 105.173 28.5245ZM114.929 21.9822L112.978 27.335H112.884L110.84 21.9822H108.982L112.048 29.5157L110.283 33.679H112.048L116.787 21.9822H114.929ZM99.3197 29.9122H101.085V17.5215H99.3197V29.9122Z" fill="white"/>
<path d="M9.66243 7.60938C9.38373 7.90675 9.29077 8.40238 9.29077 8.99714V30.904C9.29077 31.4987 9.4766 31.9943 9.75539 32.2917L9.84826 32.3908L21.369 20.0992V20.0001V19.901L9.66243 7.60938Z" fill="url(#paint0_linear_520_2041)"/>
<path d="M25.0851 24.2626L21.2759 20.1985V20.0002V19.9011L25.0851 15.8369L25.178 15.936L29.7306 18.7116C31.0313 19.5046 31.0313 20.7932 29.7306 21.5862L25.0851 24.2626Z" fill="url(#paint1_linear_520_2041)"/>
<path d="M25.1779 24.1633L21.2758 20L9.66211 32.3907C10.1266 32.8864 10.7771 32.8864 11.6133 32.4899L25.1779 24.1633Z" fill="url(#paint2_linear_520_2041)"/>
<path d="M25.1779 15.837L11.6133 7.60954C10.7771 7.11391 10.1266 7.21304 9.66211 7.70867L21.2758 20.0003L25.1779 15.837Z" fill="url(#paint3_linear_520_2041)"/>
<path opacity="0.2" d="M25.0846 24.0645L11.6128 32.1928C10.8695 32.6884 10.2191 32.5893 9.75458 32.1928L9.66162 32.2919L9.75458 32.391C10.2191 32.7875 10.8695 32.8867 11.6128 32.391L25.0846 24.0645Z" fill="black"/>
<path opacity="0.12" d="M9.66218 32.1925C9.38349 31.8951 9.29053 31.3994 9.29053 30.8047V30.9038C9.29053 31.4986 9.47636 31.9942 9.75514 32.2916V32.1925H9.66218Z" fill="black"/>
<path opacity="0.12" d="M29.7306 21.2886L25.0852 24.0642L25.1782 24.1633L29.7306 21.3878C30.381 20.9913 30.6598 20.4956 30.6598 20C30.6598 20.4956 30.2881 20.8921 29.7306 21.2886Z" fill="black"/>
<path opacity="0.25" d="M11.6137 7.70862L29.7309 18.7116C30.2884 19.1081 30.6601 19.5046 30.6601 20.0003C30.6601 19.5046 30.3813 19.009 29.7309 18.6125L11.6137 7.60949C10.313 6.81648 9.29102 7.41124 9.29102 8.99729V9.09641C9.29102 7.60949 10.313 6.91561 11.6137 7.70862Z" fill="white"/>
</g>
<defs>
<linearGradient id="paint0_linear_520_2041" x1="20.2537" y1="8.8086" x2="3.65282" y2="24.3683" gradientUnits="userSpaceOnUse">
<stop stop-color="#00A0FF"/>
<stop offset="0.00657445" stop-color="#00A1FF"/>
<stop offset="0.2601" stop-color="#00BEFF"/>
<stop offset="0.5122" stop-color="#00D2FF"/>
<stop offset="0.7604" stop-color="#00DFFF"/>
<stop offset="1" stop-color="#00E3FF"/>
</linearGradient>
<linearGradient id="paint1_linear_520_2041" x1="31.4348" y1="20.0017" x2="8.95369" y2="20.0017" gradientUnits="userSpaceOnUse">
<stop stop-color="#FFE000"/>
<stop offset="0.4087" stop-color="#FFBD00"/>
<stop offset="0.7754" stop-color="#FFA500"/>
<stop offset="1" stop-color="#FF9C00"/>
</linearGradient>
<linearGradient id="paint2_linear_520_2041" x1="23.066" y1="22.2761" x2="0.553881" y2="43.3763" gradientUnits="userSpaceOnUse">
<stop stop-color="#FF3A44"/>
<stop offset="1" stop-color="#C31162"/>
</linearGradient>
<linearGradient id="paint3_linear_520_2041" x1="6.77935" y1="0.349861" x2="16.832" y2="9.77198" gradientUnits="userSpaceOnUse">
<stop stop-color="#32A071"/>
<stop offset="0.0685" stop-color="#2DA771"/>
<stop offset="0.4762" stop-color="#15CF74"/>
<stop offset="0.8009" stop-color="#06E775"/>
<stop offset="1" stop-color="#00F076"/>
</linearGradient>
<clipPath id="clip0_520_2041">
<rect width="126" height="39.6503" fill="white" transform="translate(0 0.174805)"/>
</clipPath>
</defs>
</svg>
